<svg width="28" height="28" viewBox="0 0 28 28" fill="none" xmlns="http://www.w3.org/2000/svg">
<path d="M20.208 10.104C20.208 8.5127 19.5759 6.98658 18.4506 5.86136C17.3254 4.73614 15.7993 4.104 14.208 4.104C12.6167 4.104 11.0906 4.73614 9.96537 5.86136C8.84015 6.98658 8.20801 8.5127 8.20801 10.104C8.20801 17.104 5.20801 19.104 5.20801 19.104H23.208C23.208 19.104 20.208 17.104 20.208 10.104Z" stroke="#2A2E36" stroke-width="1.8" stroke-linecap="round" stroke-linejoin="round"/>
<circle cx="19.583" cy="8.479" r="3.275" fill="#5D31FF" stroke="white" stroke-width="1.8"/>
<path d="M15.938 23.104C15.7622 23.4071 15.5099 23.6587 15.2063 23.8335C14.9026 24.0084 14.5584 24.1005 14.208 24.1005C13.8576 24.1005 13.5134 24.0084 13.2098 23.8335C12.9062 23.6587 12.6538 23.4071 12.478 23.104" stroke="#2A2E36" stroke-width="1.8" stroke-linecap="round" stroke-linejoin="round"/>
</svg>
